<svg width="24" height="24" viewBox="0 0 24 24" fill="none" xmlns="http://www.w3.org/2000/svg">
<path d="M19.0004 15V3.99997C18.9997 3.84976 18.9652 3.70164 18.8994 3.56661C18.8336 3.43157 18.7383 3.31309 18.6204 3.21997C18.5043 3.12599 18.3685 3.05924 18.2231 3.02463C18.0778 2.99002 17.9265 2.98843 17.7804 3.01997L8.78043 5.01997C8.55825 5.07007 8.35983 5.19452 8.21799 5.37272C8.07616 5.55093 7.9994 5.77221 8.00043 5.99997V14.34C7.31776 14.0177 6.549 13.9254 5.80946 14.0771C5.06993 14.2287 4.39951 14.6161 3.89877 15.181C3.39803 15.746 3.09397 16.458 3.03221 17.2104C2.97045 17.9628 3.15432 18.715 3.55623 19.354C3.95814 19.993 4.55642 20.4845 5.26133 20.7547C5.96623 21.0249 6.73975 21.0593 7.46583 20.8527C8.19192 20.646 8.83142 20.2095 9.28841 19.6086C9.7454 19.0077 9.99523 18.2749 10.0004 17.52C10.0108 17.3468 10.0108 17.1731 10.0004 17V6.79997L17.0004 5.24997V12.34C16.3174 12.0175 15.5481 11.9253 14.8082 12.0773C14.0683 12.2293 13.3977 12.6172 12.8971 13.1828C12.3965 13.7484 12.0929 14.4612 12.0319 15.2141C11.9709 15.967 12.1558 16.7193 12.5588 17.3582C12.9619 17.997 13.5613 18.4878 14.2671 18.7569C14.9729 19.026 15.7469 19.0589 16.473 18.8506C17.199 18.6423 17.8379 18.204 18.2936 17.6016C18.7494 16.9993 18.9974 16.2653 19.0004 15.51C19.0099 15.3401 19.0099 15.1698 19.0004 15ZM6.54043 19C6.25861 18.9999 5.98259 18.9198 5.74442 18.7692C5.50625 18.6185 5.31569 18.4034 5.19485 18.1488C5.07402 17.8942 5.02787 17.6106 5.06175 17.3308C5.09564 17.051 5.20818 16.7866 5.38631 16.5682C5.56444 16.3498 5.80085 16.1864 6.0681 16.097C6.33536 16.0076 6.62249 15.9957 6.89619 16.0629C7.16988 16.1301 7.41891 16.2736 7.61436 16.4766C7.80982 16.6796 7.94369 16.9339 8.00043 17.21C8.01026 17.3097 8.01026 17.4102 8.00043 17.51C8.00051 17.9 7.84765 18.2745 7.57468 18.5531C7.3017 18.8317 6.93038 18.9921 6.54043 19ZM15.5404 17C15.2557 17.0022 14.9762 16.9233 14.7346 16.7726C14.493 16.6218 14.2994 16.4054 14.1762 16.1487C14.0531 15.8919 14.0056 15.6054 14.0393 15.3227C14.0729 15.0399 14.1864 14.7726 14.3664 14.5519C14.5463 14.3313 14.7854 14.1664 15.0556 14.0766C15.3258 13.9868 15.616 13.9757 15.8923 14.0447C16.1686 14.1138 16.4195 14.26 16.6157 14.4663C16.8119 14.6727 16.9454 14.9306 17.0004 15.21C17.0103 15.3097 17.0103 15.4102 17.0004 15.51C16.9978 15.9043 16.84 16.2818 16.5611 16.5607C16.2823 16.8395 15.9048 16.9973 15.5104 17H15.5404Z" fill="#292929"/>
</svg>
