<svg width="20" height="20" viewBox="0 0 20 20" fill="none" xmlns="http://www.w3.org/2000/svg">
<path d="M11.5674 14H10.4004V10.7773H7.10938V14H5.9375V6.86133H7.10938V9.78125H10.4004V6.86133H11.5674V14Z" fill="white"/>
<path d="M15.1133 14H13.1797V13.6543L13.9199 12.9043C14.0632 12.7585 14.181 12.6328 14.2734 12.5273C14.3659 12.4206 14.4342 12.3197 14.4785 12.2246C14.5241 12.1296 14.5469 12.026 14.5469 11.9141C14.5469 11.776 14.5072 11.6719 14.4277 11.6016C14.3483 11.5299 14.2435 11.4941 14.1133 11.4941C13.9896 11.4941 13.875 11.5189 13.7695 11.5684C13.6654 11.6165 13.5573 11.6855 13.4453 11.7754L13.1934 11.4727C13.2728 11.4049 13.3574 11.3431 13.4473 11.2871C13.5384 11.2311 13.64 11.1868 13.752 11.1543C13.8639 11.1204 13.9915 11.1035 14.1348 11.1035C14.3158 11.1035 14.472 11.1361 14.6035 11.2012C14.735 11.265 14.8359 11.3542 14.9062 11.4688C14.9779 11.5833 15.0137 11.7168 15.0137 11.8691C15.0137 12.0228 14.9831 12.1647 14.9219 12.2949C14.8607 12.4251 14.7734 12.554 14.6602 12.6816C14.5469 12.8079 14.4121 12.9453 14.2559 13.0938L13.7617 13.5762V13.5977H15.1133V14Z" fill="white"/>
</svg>
