<svg width="20" height="20" viewBox="0 0 20 20" fill="none" xmlns="http://www.w3.org/2000/svg">
<path d="M7.89844 6.86133H10.1201C11.0706 6.86133 11.79 6.99479 12.2783 7.26172C12.7666 7.52865 13.0107 7.9974 13.0107 8.66797C13.0107 8.93815 12.9668 9.18229 12.8789 9.40039C12.7943 9.61849 12.6706 9.79753 12.5078 9.9375C12.3451 10.0775 12.1465 10.1686 11.9121 10.2109V10.2598C12.1497 10.3086 12.3646 10.3932 12.5566 10.5137C12.7487 10.6309 12.9017 10.8034 13.0156 11.0312C13.1328 11.2559 13.1914 11.5553 13.1914 11.9297C13.1914 12.3626 13.0856 12.7337 12.874 13.043C12.6624 13.3522 12.3597 13.5898 11.9658 13.7559C11.5752 13.9186 11.1097 14 10.5693 14H7.89844V6.86133ZM9.41211 9.68848H10.291C10.7305 9.68848 11.0348 9.62012 11.2041 9.4834C11.3734 9.34342 11.458 9.13835 11.458 8.86816C11.458 8.59473 11.3571 8.39941 11.1553 8.28223C10.9567 8.16178 10.641 8.10156 10.208 8.10156H9.41211V9.68848ZM9.41211 10.8896V12.75H10.3984C10.8542 12.75 11.1715 12.6621 11.3506 12.4863C11.5296 12.3105 11.6191 12.0745 11.6191 11.7783C11.6191 11.6025 11.5801 11.4479 11.502 11.3145C11.4238 11.181 11.292 11.0768 11.1064 11.002C10.9242 10.9271 10.6719 10.8896 10.3496 10.8896H9.41211Z" fill="white"/>
</svg>

