<svg width="20" height="20" viewBox="0 0 20 20" fill="none" xmlns="http://www.w3.org/2000/svg">
<path d="M12.543 6.86133V11.4805C12.543 11.9785 12.4372 12.4245 12.2256 12.8184C12.0173 13.2122 11.7015 13.5247 11.2783 13.7559C10.8551 13.9837 10.3229 14.0977 9.68164 14.0977C8.76693 14.0977 8.07031 13.8584 7.5918 13.3799C7.11654 12.8981 6.87891 12.2585 6.87891 11.4609V6.86133H8.05078V11.3584C8.05078 11.9541 8.19076 12.3936 8.4707 12.6768C8.75065 12.96 9.16895 13.1016 9.72559 13.1016C10.1097 13.1016 10.4222 13.0348 10.6631 12.9014C10.9072 12.7646 11.0863 12.5661 11.2002 12.3057C11.3174 12.042 11.376 11.7246 11.376 11.3535V6.86133H12.543Z" fill="white"/>
<path d="M6 14.6104H13.4268V14.8545H6V14.6104Z" fill="white"/>
</svg>
