<svg width="20" height="20" viewBox="0 0 20 20" fill="none" xmlns="http://www.w3.org/2000/svg">
<path d="M10.5375 8.87083L8.87081 10.5375C8.83175 10.5762 8.80076 10.6223 8.7796 10.6731C8.75845 10.7239 8.74756 10.7783 8.74756 10.8333C8.74756 10.8883 8.75845 10.9428 8.7796 10.9936C8.80076 11.0443 8.83175 11.0904 8.87081 11.1292C8.90954 11.1682 8.95563 11.1992 9.0064 11.2204C9.05718 11.2415 9.11164 11.2524 9.16664 11.2524C9.22165 11.2524 9.27611 11.2415 9.32688 11.2204C9.37766 11.1992 9.42374 11.1682 9.46247 11.1292L11.1291 9.4625C11.2076 9.38404 11.2517 9.27762 11.2517 9.16666C11.2517 9.0557 11.2076 8.94929 11.1291 8.87083C11.0507 8.79237 10.9443 8.74829 10.8333 8.74829C10.7223 8.74829 10.6159 8.79237 10.5375 8.87083V8.87083Z" fill="white"/>
<path d="M10.1168 12.25L9.58347 12.7792C9.28406 13.0877 8.88157 13.2752 8.45276 13.3059C8.02394 13.3367 7.59882 13.2085 7.25847 12.9458C7.07858 12.7976 6.93179 12.6133 6.82757 12.4048C6.72335 12.1963 6.66402 11.9683 6.65342 11.7354C6.64282 11.5025 6.68118 11.2701 6.76602 11.053C6.85086 10.8359 6.9803 10.639 7.14597 10.475L7.73764 9.87916C7.77669 9.84043 7.80769 9.79434 7.82884 9.74357C7.84999 9.69279 7.86088 9.63833 7.86088 9.58333C7.86088 9.52832 7.84999 9.47386 7.82884 9.42309C7.80769 9.37231 7.77669 9.32623 7.73764 9.28749C7.6989 9.24844 7.65282 9.21744 7.60204 9.19629C7.55127 9.17514 7.49681 9.16425 7.4418 9.16425C7.3868 9.16425 7.33234 9.17514 7.28156 9.19629C7.23079 9.21744 7.1847 9.24844 7.14597 9.28749L6.6168 9.82083C6.17103 10.2525 5.89705 10.8313 5.8457 11.4496C5.79436 12.068 5.96916 12.6841 6.33763 13.1833C6.55633 13.467 6.8329 13.701 7.14896 13.8696C7.46503 14.0382 7.81335 14.1376 8.17079 14.1613C8.52824 14.1849 8.88662 14.1323 9.22214 14.0067C9.55766 13.8812 9.86263 13.6858 10.1168 13.4333L10.7085 12.8417C10.7869 12.7632 10.831 12.6568 10.831 12.5458C10.831 12.4349 10.7869 12.3285 10.7085 12.25C10.63 12.1715 10.5236 12.1275 10.4126 12.1275C10.3017 12.1275 10.1953 12.1715 10.1168 12.25V12.25Z" fill="white"/>
<path d="M13.1916 6.34167C12.6889 5.96937 12.0678 5.79279 11.4445 5.84493C10.8211 5.89707 10.238 6.17436 9.8041 6.62501L9.3541 7.08334C9.30267 7.12073 9.25966 7.1685 9.22786 7.22357C9.19606 7.27864 9.17618 7.33977 9.1695 7.403C9.16283 7.46624 9.1695 7.53017 9.1891 7.59067C9.2087 7.65116 9.24078 7.70686 9.28327 7.75417C9.32201 7.79323 9.36809 7.82422 9.41886 7.84538C9.46964 7.86653 9.5241 7.87742 9.5791 7.87742C9.63411 7.87742 9.68857 7.86653 9.73934 7.84538C9.79012 7.82422 9.8362 7.79323 9.87494 7.75417L10.4166 7.20834C10.7144 6.89847 11.1164 6.70994 11.545 6.67916C11.9736 6.64837 12.3985 6.77753 12.7374 7.04167C12.9187 7.18992 13.0666 7.3747 13.1717 7.58395C13.2767 7.7932 13.3365 8.02224 13.3471 8.25614C13.3577 8.49004 13.3189 8.72355 13.2333 8.94146C13.1476 9.15937 13.017 9.35678 12.8499 9.52084L12.2583 10.1167C12.2192 10.1554 12.1882 10.2015 12.1671 10.2523C12.1459 10.303 12.135 10.3575 12.135 10.4125C12.135 10.4675 12.1459 10.522 12.1671 10.5727C12.1882 10.6235 12.2192 10.6696 12.2583 10.7083C12.297 10.7474 12.3431 10.7784 12.3939 10.7995C12.4446 10.8207 12.4991 10.8316 12.5541 10.8316C12.6091 10.8316 12.6636 10.8207 12.7143 10.7995C12.7651 10.7784 12.8112 10.7474 12.8499 10.7083L13.4416 10.1167C13.6933 9.86255 13.8882 9.55784 14.0133 9.22273C14.1384 8.88762 14.1909 8.52976 14.1672 8.17284C14.1436 7.81592 14.0444 7.4681 13.8762 7.15242C13.708 6.83673 13.4746 6.56038 13.1916 6.34167V6.34167Z" fill="white"/>
</svg>
