<svg width="20" height="20" viewBox="0 0 20 20" fill="none" xmlns="http://www.w3.org/2000/svg">
<path d="M11.4521 14.7471L11.377 15H7.5625L7.6582 14.7471C8.04102 14.738 8.29395 14.7061 8.41699 14.6514C8.61751 14.5739 8.76562 14.4668 8.86133 14.3301C9.01172 14.1159 9.16667 13.7331 9.32617 13.1816L10.9395 7.58984C11.0762 7.125 11.1445 6.77409 11.1445 6.53711C11.1445 6.41862 11.1149 6.31836 11.0557 6.23633C10.9964 6.1543 10.9053 6.09277 10.7822 6.05176C10.6637 6.00618 10.429 5.9834 10.0781 5.9834L10.1602 5.73047H13.7422L13.667 5.9834C13.3753 5.97884 13.1589 6.01074 13.0176 6.0791C12.8125 6.17025 12.6553 6.30013 12.5459 6.46875C12.4411 6.63737 12.3044 7.01107 12.1357 7.58984L10.5293 13.1816C10.3835 13.6966 10.3105 14.0247 10.3105 14.166C10.3105 14.2799 10.3379 14.3779 10.3926 14.46C10.4518 14.5374 10.543 14.599 10.666 14.6445C10.7936 14.6855 11.0557 14.7197 11.4521 14.7471Z" fill="white"/>
</svg>
