<svg width="20" height="20" viewBox="0 0 20 20" fill="none" xmlns="http://www.w3.org/2000/svg">
<path d="M3.33333 6.66667C3.79357 6.66667 4.16667 6.29357 4.16667 5.83333C4.16667 5.3731 3.79357 5 3.33333 5C2.8731 5 2.5 5.3731 2.5 5.83333C2.5 6.29357 2.8731 6.66667 3.33333 6.66667Z" fill="#0356A8"/>
<path d="M3.33333 10.8333C3.79357 10.8333 4.16667 10.4602 4.16667 9.99999C4.16667 9.53975 3.79357 9.16666 3.33333 9.16666C2.8731 9.16666 2.5 9.53975 2.5 9.99999C2.5 10.4602 2.8731 10.8333 3.33333 10.8333Z" fill="#0356A8"/>
<path d="M3.33333 15C3.79357 15 4.16667 14.6269 4.16667 14.1667C4.16667 13.7064 3.79357 13.3333 3.33333 13.3333C2.8731 13.3333 2.5 13.7064 2.5 14.1667C2.5 14.6269 2.8731 15 3.33333 15Z" fill="#0356A8"/>
<path d="M16.7166 9.16666H6.61659C6.18396 9.16666 5.83325 9.51737 5.83325 9.94999V10.05C5.83325 10.4826 6.18396 10.8333 6.61659 10.8333H16.7166C17.1492 10.8333 17.4999 10.4826 17.4999 10.05V9.94999C17.4999 9.51737 17.1492 9.16666 16.7166 9.16666Z" fill="#0356A8"/>
<path d="M16.7166 13.3333H6.61659C6.18396 13.3333 5.83325 13.6841 5.83325 14.1167V14.2167C5.83325 14.6493 6.18396 15 6.61659 15H16.7166C17.1492 15 17.4999 14.6493 17.4999 14.2167V14.1167C17.4999 13.6841 17.1492 13.3333 16.7166 13.3333Z" fill="#0356A8"/>
<path d="M16.7166 5H6.61659C6.18396 5 5.83325 5.35071 5.83325 5.78333V5.88333C5.83325 6.31596 6.18396 6.66667 6.61659 6.66667H16.7166C17.1492 6.66667 17.4999 6.31596 17.4999 5.88333V5.78333C17.4999 5.35071 17.1492 5 16.7166 5Z" fill="#0356A8"/>
</svg>
