<svg width="10" height="6" viewBox="0 0 10 6" fill="none" xmlns="http://www.w3.org/2000/svg">
<path d="M5.00015 5.41662C4.89048 5.41725 4.78176 5.39623 4.68023 5.35476C4.5787 5.31329 4.48635 5.25218 4.40849 5.17495L1.07515 1.84162C0.997456 1.76392 0.935822 1.67168 0.893772 1.57016C0.851721 1.46864 0.830078 1.35983 0.830078 1.24995C0.830078 1.14007 0.851721 1.03126 0.893772 0.929743C0.935822 0.828224 0.997456 0.735983 1.07515 0.658284C1.15285 0.580585 1.2451 0.518951 1.34661 0.476901C1.44813 0.43485 1.55694 0.413208 1.66682 0.413208C1.7767 0.413208 1.88551 0.43485 1.98703 0.476901C2.08855 0.518951 2.18079 0.580585 2.25849 0.658284L5.00015 3.41662L7.75015 0.766617C7.82681 0.681376 7.92024 0.612869 8.02458 0.56538C8.12893 0.517892 8.24194 0.492444 8.35657 0.490628C8.4712 0.488812 8.58497 0.510666 8.69077 0.554825C8.79656 0.598985 8.89211 0.664499 8.97143 0.747269C9.05075 0.830039 9.11214 0.928286 9.15176 1.03586C9.19138 1.14344 9.20838 1.25804 9.20169 1.37249C9.195 1.48693 9.16476 1.59877 9.11288 1.701C9.061 1.80323 8.98858 1.89365 8.90015 1.96662L5.56682 5.18328C5.41443 5.33021 5.21182 5.41364 5.00015 5.41662Z" fill="#666666"/>
</svg>
