<svg width="20" height="21" viewBox="0 0 20 21" fill="none" xmlns="http://www.w3.org/2000/svg">
<path d="M10.5917 9.90838C10.4359 9.75569 10.2265 9.67017 10.0084 9.67017C9.79023 9.67017 9.5808 9.75569 9.42502 9.90838L6.92502 12.325C6.8366 12.398 6.76418 12.4884 6.7123 12.5907C6.66041 12.6929 6.63018 12.8047 6.62349 12.9192C6.6168 13.0336 6.6338 13.1482 6.67342 13.2558C6.71304 13.3634 6.77442 13.4616 6.85375 13.5444C6.93307 13.6272 7.02862 13.6927 7.13441 13.7368C7.24021 13.781 7.35398 13.8029 7.4686 13.801C7.58323 13.7992 7.69625 13.7738 7.8006 13.7263C7.90494 13.6788 7.99836 13.6103 8.07502 13.525L9.16669 12.4667V17.1667C9.16669 17.3877 9.25449 17.5997 9.41077 17.756C9.56705 17.9123 9.77901 18 10 18C10.221 18 10.433 17.9123 10.5893 17.756C10.7456 17.5997 10.8334 17.3877 10.8334 17.1667V12.5084L11.9084 13.5917C11.9858 13.6698 12.078 13.7318 12.1795 13.7741C12.2811 13.8164 12.39 13.8382 12.5 13.8382C12.61 13.8382 12.719 13.8164 12.8205 13.7741C12.9221 13.7318 13.0142 13.6698 13.0917 13.5917C13.1698 13.5142 13.2318 13.4221 13.2741 13.3205C13.3164 13.219 13.3382 13.1101 13.3382 13C13.3382 12.89 13.3164 12.7811 13.2741 12.6796C13.2318 12.578 13.1698 12.4858 13.0917 12.4084L10.5917 9.90838Z" fill="#50A718"/>
<path d="M14.7252 6.3334C14.3851 5.35094 13.7473 4.49891 12.9004 3.89587C12.0536 3.29282 11.0398 2.96875 10.0002 2.96875C8.96052 2.96875 7.94674 3.29282 7.09988 3.89587C6.25301 4.49891 5.61519 5.35094 5.27516 6.3334C4.52645 6.43368 3.81909 6.73561 3.22874 7.20689C2.63839 7.67818 2.18727 8.30108 1.92363 9.00897C1.65999 9.71687 1.59375 10.4831 1.732 11.2257C1.87024 11.9684 2.20778 12.6595 2.70849 13.2251C2.76897 13.3316 2.8522 13.4235 2.95225 13.4942C3.05229 13.5649 3.1667 13.6127 3.28731 13.6341C3.40793 13.6556 3.53179 13.6501 3.65007 13.6183C3.76836 13.5864 3.87816 13.5288 3.97166 13.4496C4.06515 13.3705 4.14005 13.2717 4.191 13.1603C4.24196 13.0489 4.26773 12.9276 4.26647 12.8051C4.26521 12.6826 4.23696 12.5619 4.18373 12.4515C4.1305 12.3412 4.05359 12.244 3.95849 12.1667C3.63609 11.8063 3.42514 11.3601 3.35123 10.8821C3.27732 10.4042 3.3436 9.91513 3.54205 9.47413C3.7405 9.03312 4.0626 8.65914 4.46932 8.39751C4.87603 8.13587 5.3499 7.99781 5.83349 8.00007H5.91682C6.11178 8.004 6.30194 7.93944 6.45421 7.81763C6.60647 7.69581 6.7112 7.52446 6.75016 7.3334C6.90317 6.57987 7.31198 5.90242 7.90732 5.41581C8.50266 4.92921 9.24792 4.66339 10.0168 4.66339C10.7857 4.66339 11.531 4.92921 12.1263 5.41581C12.7217 5.90242 13.1305 6.57987 13.2835 7.3334C13.3224 7.52446 13.4272 7.69581 13.5794 7.81763C13.7317 7.93944 13.9219 8.004 14.1168 8.00007H14.1668C14.6504 7.99781 15.1243 8.13587 15.531 8.39751C15.9377 8.65914 16.2598 9.03312 16.4583 9.47413C16.6567 9.91513 16.723 10.4042 16.6491 10.8821C16.5752 11.3601 16.3642 11.8063 16.0418 12.1667C15.9684 12.2491 15.9121 12.3451 15.8761 12.4494C15.8401 12.5536 15.8251 12.664 15.8321 12.7741C15.8391 12.8841 15.8679 12.9917 15.9167 13.0906C15.9656 13.1895 16.0336 13.2777 16.1168 13.3501C16.2687 13.484 16.4643 13.5581 16.6668 13.5584C16.7851 13.5582 16.9021 13.5329 17.0098 13.4841C17.1176 13.4352 17.2137 13.364 17.2918 13.2751C17.8064 12.7104 18.1559 12.0152 18.302 11.2653C18.4481 10.5155 18.3853 9.73991 18.1203 9.02338C17.8554 8.30684 17.3986 7.67693 16.7998 7.20251C16.201 6.72809 15.4833 6.42743 14.7252 6.3334Z" fill="#50A718"/>
</svg>
