<svg width="20" height="20" viewBox="0 0 20 20" fill="none" xmlns="http://www.w3.org/2000/svg">
<path d="M16.7166 9.16666H6.61659C6.18396 9.16666 5.83325 9.51737 5.83325 9.94999V10.05C5.83325 10.4826 6.18396 10.8333 6.61659 10.8333H16.7166C17.1492 10.8333 17.4999 10.4826 17.4999 10.05V9.94999C17.4999 9.51737 17.1492 9.16666 16.7166 9.16666Z" fill="#0356A8"/>
<path d="M16.7166 13.3333H6.61659C6.18396 13.3333 5.83325 13.6841 5.83325 14.1167V14.2167C5.83325 14.6493 6.18396 15 6.61659 15H16.7166C17.1492 15 17.4999 14.6493 17.4999 14.2167V14.1167C17.4999 13.6841 17.1492 13.3333 16.7166 13.3333Z" fill="#0356A8"/>
<path d="M16.7166 5H6.61659C6.18396 5 5.83325 5.35071 5.83325 5.78333V5.88333C5.83325 6.31596 6.18396 6.66667 6.61659 6.66667H16.7166C17.1492 6.66667 17.4999 6.31596 17.4999 5.88333V5.78333C17.4999 5.35071 17.1492 5 16.7166 5Z" fill="#0356A8"/>
<path d="M3.14697 7H2.80127V5.62158C2.80127 5.57568 2.80176 5.52979 2.80273 5.48389C2.80371 5.43799 2.80469 5.39307 2.80566 5.34912C2.80762 5.30518 2.81006 5.26318 2.81299 5.22314C2.79248 5.24561 2.76709 5.27002 2.73682 5.29639C2.70752 5.32275 2.67627 5.3501 2.64307 5.37842L2.39697 5.57471L2.22412 5.35645L2.85986 4.8584H3.14697V7Z" fill="#0356A8"/>
<path d="M3.58496 11H2.13477V10.7407L2.68994 10.1782C2.79736 10.0688 2.88574 9.97461 2.95508 9.89551C3.02441 9.81543 3.07568 9.73975 3.10889 9.66846C3.14307 9.59717 3.16016 9.51953 3.16016 9.43555C3.16016 9.33203 3.13037 9.25391 3.0708 9.20117C3.01123 9.14746 2.93262 9.12061 2.83496 9.12061C2.74219 9.12061 2.65625 9.13916 2.57715 9.17627C2.49902 9.2124 2.41797 9.26416 2.33398 9.33154L2.14502 9.10449C2.20459 9.05371 2.26807 9.00732 2.33545 8.96533C2.40381 8.92334 2.47998 8.89014 2.56396 8.86572C2.64795 8.84033 2.74365 8.82764 2.85107 8.82764C2.98682 8.82764 3.104 8.85205 3.20264 8.90088C3.30127 8.94873 3.37695 9.01562 3.42969 9.10156C3.4834 9.1875 3.51025 9.2876 3.51025 9.40186C3.51025 9.51709 3.4873 9.62354 3.44141 9.72119C3.39551 9.81885 3.33008 9.91553 3.24512 10.0112C3.16016 10.106 3.05908 10.209 2.94189 10.3203L2.57129 10.6821V10.6982H3.58496V11Z" fill="#0356A8"/>
<path d="M3.50293 13.3477C3.50293 13.4443 3.4834 13.5283 3.44434 13.5996C3.40527 13.6709 3.35156 13.7295 3.2832 13.7754C3.21582 13.8203 3.1377 13.8525 3.04883 13.8721V13.8823C3.21973 13.9038 3.34863 13.9575 3.43555 14.0435C3.52344 14.1294 3.56738 14.2432 3.56738 14.3848C3.56738 14.5088 3.5376 14.6196 3.47803 14.7173C3.41846 14.814 3.32715 14.8901 3.2041 14.9458C3.08105 15.0015 2.92285 15.0293 2.72949 15.0293C2.61328 15.0293 2.50537 15.02 2.40576 15.0015C2.30713 14.9829 2.21338 14.9531 2.12451 14.9121V14.606C2.21533 14.6509 2.31201 14.6855 2.41455 14.71C2.51709 14.7344 2.61426 14.7466 2.70605 14.7466C2.88477 14.7466 3.01221 14.7134 3.08838 14.647C3.16455 14.5796 3.20264 14.4868 3.20264 14.3687C3.20264 14.2925 3.18262 14.23 3.14258 14.1812C3.10352 14.1323 3.04248 14.0957 2.95947 14.0713C2.87744 14.0469 2.77148 14.0347 2.6416 14.0347H2.45264V13.7578H2.64307C2.76709 13.7578 2.8667 13.7432 2.94189 13.7139C3.01709 13.6836 3.07129 13.6421 3.10449 13.5894C3.13867 13.5366 3.15576 13.4751 3.15576 13.4048C3.15576 13.313 3.12598 13.2417 3.06641 13.1909C3.00684 13.1392 2.91846 13.1133 2.80127 13.1133C2.729 13.1133 2.66309 13.1216 2.60352 13.1382C2.54492 13.1548 2.49072 13.1758 2.44092 13.2012C2.39111 13.2266 2.34375 13.2539 2.29883 13.2832L2.1333 13.0444C2.21436 12.9839 2.31104 12.9326 2.42334 12.8906C2.53564 12.8486 2.6665 12.8276 2.81592 12.8276C3.03564 12.8276 3.20508 12.875 3.32422 12.9697C3.44336 13.0635 3.50293 13.1895 3.50293 13.3477Z" fill="#0356A8"/>
</svg>
