<svg width="20" height="20" viewBox="0 0 20 20" fill="none" xmlns="http://www.w3.org/2000/svg">
<path d="M13 5.5H7C6.60218 5.5 6.22064 5.65804 5.93934 5.93934C5.65804 6.22064 5.5 6.60218 5.5 7V13C5.5 13.3978 5.65804 13.7794 5.93934 14.0607C6.22064 14.342 6.60218 14.5 7 14.5H13C13.3978 14.5 13.7794 14.342 14.0607 14.0607C14.342 13.7794 14.5 13.3978 14.5 13V7C14.5 6.60218 14.342 6.22064 14.0607 5.93934C13.7794 5.65804 13.3978 5.5 13 5.5ZM7 6.5H13C13.1326 6.5 13.2598 6.55268 13.3536 6.64645C13.4473 6.74021 13.5 6.86739 13.5 7V11.18L11.9 9.815C11.6521 9.61102 11.341 9.4995 11.02 9.4995C10.699 9.4995 10.3879 9.61102 10.14 9.815L6.5 12.85V7C6.5 6.86739 6.55268 6.74021 6.64645 6.64645C6.74021 6.55268 6.86739 6.5 7 6.5ZM13 13.5H7.28L10.78 10.58C10.8472 10.5301 10.9288 10.5031 11.0125 10.5031C11.0962 10.5031 11.1778 10.5301 11.245 10.58L13.5 12.5V13C13.5 13.1326 13.4473 13.2598 13.3536 13.3536C13.2598 13.4473 13.1326 13.5 13 13.5Z" fill="#0356A8"/>
<path d="M8 9C8.41421 9 8.75 8.66421 8.75 8.25C8.75 7.83579 8.41421 7.5 8 7.5C7.58579 7.5 7.25 7.83579 7.25 8.25C7.25 8.66421 7.58579 9 8 9Z" fill="#0356A8"/>
</svg>
