<svg width="20" height="20" viewBox="0 0 20 20" fill="none" xmlns="http://www.w3.org/2000/svg">
<g clip-path="url(#clip0_235_6396)">
<path d="M17.8833 10H7.78333C7.35071 10 7 10.3507 7 10.7833V10.8833C7 11.316 7.35071 11.6667 7.78333 11.6667H17.8833C18.316 11.6667 18.6667 11.316 18.6667 10.8833V10.7833C18.6667 10.3507 18.316 10 17.8833 10Z" fill="#00559A"/>
<path d="M11.8833 13H1.78333C1.35071 13 1 13.3507 1 13.7833V13.8833C1 14.316 1.35071 14.6667 1.78333 14.6667H11.8833C12.316 14.6667 12.6667 14.316 12.6667 13.8833V13.7833C12.6667 13.3507 12.316 13 11.8833 13Z" fill="#00559A"/>
<path d="M17.8833 13H7.78333C7.35071 13 7 13.3507 7 13.7833V13.8833C7 14.316 7.35071 14.6667 7.78333 14.6667H17.8833C18.316 14.6667 18.6667 14.316 18.6667 13.8833V13.7833C18.6667 13.3507 18.316 13 17.8833 13Z" fill="#00559A"/>
<path d="M17.8833 7H7.78333C7.35071 7 7 7.35071 7 7.78333V7.88333C7 8.31596 7.35071 8.66667 7.78333 8.66667H17.8833C18.316 8.66667 18.6667 8.31596 18.6667 7.88333V7.78333C18.6667 7.35071 18.316 7 17.8833 7Z" fill="#00559A"/>
<path d="M5.28906 12L4.73047 10.4141H2.54688L1.98828 12H1L3.125 6.26562H4.16406L6.28516 12H5.28906ZM4.48828 9.60938L3.94531 8.04688C3.92448 7.97917 3.89453 7.88411 3.85547 7.76172C3.81641 7.63672 3.77734 7.51042 3.73828 7.38281C3.69922 7.2526 3.66667 7.14323 3.64062 7.05469C3.61458 7.16146 3.58203 7.28125 3.54297 7.41406C3.50651 7.54427 3.47005 7.66667 3.43359 7.78125C3.39974 7.89583 3.3737 7.98438 3.35547 8.04688L2.80859 9.60938H4.48828Z" fill="#00559A"/>
</g>
<defs>
<clipPath id="clip0_235_6396">
<rect width="20" height="20" rx="4" fill="white"/>
</clipPath>
</defs>
</svg>
