<svg width="20" height="20" viewBox="0 0 20 20" fill="none" xmlns="http://www.w3.org/2000/svg">
<path d="M11.5674 14H10.4004V10.7773H7.10938V14H5.9375V6.86133H7.10938V9.78125H10.4004V6.86133H11.5674V14Z" fill="#0356A8"/>
<path d="M15.0039 11.7969C15.0039 11.9258 14.9779 12.0378 14.9258 12.1328C14.8737 12.2279 14.8021 12.306 14.7109 12.3672C14.6211 12.4271 14.5169 12.4701 14.3984 12.4961V12.5098C14.6263 12.5384 14.7982 12.61 14.9141 12.7246C15.0312 12.8392 15.0898 12.9909 15.0898 13.1797C15.0898 13.3451 15.0501 13.4928 14.9707 13.623C14.8913 13.752 14.7695 13.8535 14.6055 13.9277C14.4414 14.002 14.2305 14.0391 13.9727 14.0391C13.8177 14.0391 13.6738 14.0267 13.541 14.002C13.4095 13.9772 13.2845 13.9375 13.166 13.8828V13.4746C13.2871 13.5345 13.416 13.5807 13.5527 13.6133C13.6895 13.6458 13.819 13.6621 13.9414 13.6621C14.1797 13.6621 14.3496 13.6178 14.4512 13.5293C14.5527 13.4395 14.6035 13.3158 14.6035 13.1582C14.6035 13.0566 14.5768 12.9733 14.5234 12.9082C14.4714 12.8431 14.39 12.7943 14.2793 12.7617C14.1699 12.7292 14.0286 12.7129 13.8555 12.7129H13.6035V12.3438H13.8574C14.0228 12.3438 14.1556 12.3242 14.2559 12.2852C14.3561 12.2448 14.4284 12.1895 14.4727 12.1191C14.5182 12.0488 14.541 11.9668 14.541 11.873C14.541 11.7507 14.5013 11.6556 14.4219 11.5879C14.3424 11.5189 14.2246 11.4844 14.0684 11.4844C13.972 11.4844 13.8841 11.4954 13.8047 11.5176C13.7266 11.5397 13.6543 11.5677 13.5879 11.6016C13.5215 11.6354 13.4583 11.6719 13.3984 11.7109L13.1777 11.3926C13.2858 11.3118 13.4147 11.2435 13.5645 11.1875C13.7142 11.1315 13.8887 11.1035 14.0879 11.1035C14.3809 11.1035 14.6068 11.1667 14.7656 11.293C14.9245 11.418 15.0039 11.5859 15.0039 11.7969Z" fill="#0356A8"/>
</svg>
