<svg width="33" height="34" viewBox="0 0 33 34" fill="none" xmlns="http://www.w3.org/2000/svg">
<path fill-rule="evenodd" clip-rule="evenodd" d="M15.6345 0.0361159C18.2857 -0.0918971 20.9128 0.143267 23.3996 0.383173C26.0777 0.641095 28.0202 1.0166 29.5938 2.33181C31.1582 3.63755 31.9682 5.44205 32.2255 7.91887C32.7578 13.0707 32.8275 18.2557 32.3946 23.4236C32.1559 26.274 31.8484 28.1307 30.5274 29.7901C29.2334 31.4173 27.5399 32.2053 25.0958 32.5192C20.4 33.1222 15.0808 33.3631 9.90658 32.778C7.26001 32.4803 5.24604 32.0725 3.71235 30.8294C2.07461 29.5018 1.30079 27.8841 0.997028 25.3277C0.722988 23.0196 0.578072 20.4774 0.445232 17.6203C0.337474 15.2858 0.553919 12.1689 0.785228 9.78027C1.06298 6.91562 1.285 5.09405 2.60968 3.37014C3.88142 1.71735 5.52659 0.899966 7.99852 0.599373C10.3265 0.317744 12.8142 0.174559 15.6345 0.0361159ZM9.82298 8.04878C10.6005 8.04878 11.378 8.04878 12.1565 8.04878C11.0018 13.6842 9.94467 19.4201 8.76212 25.0261C7.89912 25.0261 7.03706 25.0261 6.17406 25.0261C6.17406 25.2566 6.17406 25.4879 6.17406 25.7183C9.01665 25.7183 11.8592 25.7183 14.7028 25.7183C14.7028 25.4879 14.7028 25.2566 14.7028 25.0261C13.9392 24.9977 13.0622 25.084 12.3692 24.9825C13.4775 19.3291 14.53 13.6169 15.7209 8.04878C16.5987 8.04878 17.4757 8.04878 18.3526 8.04878C18.3526 7.80318 18.3526 7.55759 18.3526 7.31199C15.523 7.31199 12.6953 7.31199 9.86571 7.31199C9.76724 7.47224 9.85085 7.8174 9.82298 8.04878ZM20.4297 7.31294C20.3313 7.47224 20.4149 7.8174 20.387 8.04972C21.3067 8.04972 22.2263 8.04972 23.146 8.04972C20.23 10.7911 17.1858 13.4016 14.2773 16.1496C16.0897 19.0778 18.02 22.1169 19.7089 25.028C18.8598 25.028 18.0126 25.028 17.1635 25.028C17.1635 25.2585 17.1635 25.4898 17.1635 25.7202C20.1613 25.7202 23.159 25.7202 26.1586 25.7202C26.1586 25.4898 26.1586 25.2585 26.1586 25.028C25.3383 25.028 24.518 25.028 23.6968 25.028C21.5092 21.6039 19.3363 18.1618 17.1645 14.7197C19.2685 12.8184 21.4832 10.829 23.6132 8.8728C23.9477 8.56557 24.3164 8.11705 24.5896 8.04972C25.3058 7.8724 26.1697 8.18532 26.8376 8.04972C26.8376 7.80413 26.8376 7.55853 26.8376 7.31294C24.702 7.31294 22.5654 7.31294 20.4297 7.31294Z" fill="#0356A8"/>
</svg>
