<svg width="64" height="65" viewBox="0 0 64 65" fill="none" xmlns="http://www.w3.org/2000/svg">
<circle cx="32" cy="32.625" r="32" fill="white"/>
<path d="M30.9223 37.6343C30.9223 36.461 30.6156 35.477 30.0023 34.6783C29.5676 34.129 28.9783 33.7677 28.233 33.5957C27.4996 33.425 26.8063 33.413 26.1796 33.5583C25.9663 32.2917 26.313 30.9503 27.193 29.529C28.073 28.109 29.213 27.0397 30.6036 26.325L28.4956 23.2917C27.429 23.8197 26.4156 24.489 25.4823 25.2983C24.5356 26.1077 23.6956 27.0383 22.949 28.0903C22.2023 29.1423 21.6423 30.3303 21.2823 31.677C20.9223 33.0237 20.8223 34.397 20.9943 35.8103C21.2183 37.677 21.821 39.1703 22.8023 40.277C23.7823 41.3983 25.005 41.9583 26.4663 41.9583C27.753 41.9583 28.821 41.5717 29.6663 40.7877C30.5036 40.0197 30.9196 38.9677 30.9196 37.6303L30.9223 37.6343ZM43.0876 37.6343C43.0876 36.461 42.781 35.477 42.1676 34.6783C41.733 34.1183 41.141 33.7557 40.3983 33.589C39.6516 33.4237 38.9676 33.4157 38.345 33.5597C38.1316 32.3063 38.465 30.9597 39.3476 29.533C40.2276 28.1197 41.365 27.053 42.7556 26.333L40.653 23.2917C39.5863 23.8197 38.5796 24.489 37.6396 25.2983C36.6843 26.1197 35.8359 27.0577 35.1143 28.0903C34.373 29.1437 33.821 30.3303 33.461 31.677C33.0967 33.0229 32.9984 34.4269 33.1716 35.8103C33.393 37.677 33.993 39.1703 34.9716 40.277C35.949 41.389 37.1676 41.9463 38.629 41.9463C39.9183 41.9463 40.9863 41.5597 41.8316 40.777C42.6676 40.009 43.0876 38.957 43.0876 37.6197V37.6343Z" fill="#EE6055"/>
</svg>
