<svg width="14" height="14" viewBox="0 0 14 14" fill="none" xmlns="http://www.w3.org/2000/svg">
<g clip-path="url(#clip0_979_7556)">
<path d="M0.582031 2.33331V5.83331H4.08203" stroke="#00559A" stroke-width="2" stroke-linecap="round" stroke-linejoin="round"/>
<path d="M2.0462 8.74999C2.42443 9.82354 3.14131 10.7451 4.08883 11.3758C5.03635 12.0065 6.16318 12.3122 7.29953 12.2468C8.43588 12.1814 9.5202 11.7484 10.3891 11.0132C11.258 10.2779 11.8644 9.28023 12.117 8.17037C12.3696 7.06051 12.2546 5.89863 11.7894 4.8598C11.3242 3.82097 10.534 2.96145 9.53785 2.41077C8.5417 1.86009 7.39356 1.64806 6.26643 1.80664C5.13929 1.96522 4.09423 2.48582 3.2887 3.28999L0.582031 5.83332" stroke="#00559A" stroke-width="2" stroke-linecap="round" stroke-linejoin="round"/>
</g>
<defs>
<clipPath id="clip0_979_7556">
<rect width="14" height="14" fill="white"/>
</clipPath>
</defs>
</svg>
