<svg width="20" height="20" viewBox="0 0 20 20" fill="none" xmlns="http://www.w3.org/2000/svg">
<path d="M8.42222 9.3335H15.5778C15.811 9.3335 16 9.61705 16 9.96683V10.0335C16 10.3833 15.811 10.6668 15.5778 10.6668H8.42222C8.18904 10.6668 8 10.3833 8 10.0335V9.96683C8 9.61705 8.18904 9.3335 8.42222 9.3335Z" fill="white"/>
<path d="M4.63333 12.6665H15.3667C15.7164 12.6665 16 12.9501 16 13.2998V13.3665C16 13.7163 15.7164 13.9998 15.3667 13.9998H4.63333C4.28355 13.9998 4 13.7163 4 13.3665V13.2998C4 12.9501 4.28355 12.6665 4.63333 12.6665Z" fill="white"/>
<path d="M4.63333 6H15.3667C15.7164 6 16 6.28355 16 6.63333V6.7C16 7.04978 15.7164 7.33333 15.3667 7.33333H4.63333C4.28355 7.33333 4 7.04978 4 6.7V6.63333C4 6.28355 4.28355 6 4.63333 6Z" fill="white"/>
</svg>
