<svg width="20" height="20" viewBox="0 0 20 20" fill="none" xmlns="http://www.w3.org/2000/svg">
<path d="M13.5778 9.3335H6.42222C6.18904 9.3335 6 9.61705 6 9.96683V10.0335C6 10.3833 6.18904 10.6668 6.42222 10.6668H13.5778C13.811 10.6668 14 10.3833 14 10.0335V9.96683C14 9.61705 13.811 9.3335 13.5778 9.3335Z" fill="white"/>
<path d="M15.3667 12.6665H4.63333C4.28355 12.6665 4 12.9501 4 13.2998V13.3665C4 13.7163 4.28355 13.9998 4.63333 13.9998H15.3667C15.7164 13.9998 16 13.7163 16 13.3665V13.2998C16 12.9501 15.7164 12.6665 15.3667 12.6665Z" fill="white"/>
<path d="M15.3667 6H4.63333C4.28355 6 4 6.28355 4 6.63333V6.7C4 7.04978 4.28355 7.33333 4.63333 7.33333H15.3667C15.7164 7.33333 16 7.04978 16 6.7V6.63333C16 6.28355 15.7164 6 15.3667 6Z" fill="white"/>
</svg>
