<svg width="20" height="21" viewBox="0 0 20 21" fill="none" xmlns="http://www.w3.org/2000/svg">
<path d="M17.4998 5.50001H13.3332V4.10834C13.3136 3.57486 13.0833 3.07089 12.6928 2.70692C12.3023 2.34295 11.7834 2.14867 11.2498 2.16668H8.74984C8.2163 2.14867 7.69739 2.34295 7.30686 2.70692C6.91633 3.07089 6.68605 3.57486 6.6665 4.10834V5.50001H2.49984C2.27882 5.50001 2.06686 5.58781 1.91058 5.74409C1.7543 5.90037 1.6665 6.11233 1.6665 6.33334C1.6665 6.55436 1.7543 6.76632 1.91058 6.9226C2.06686 7.07888 2.27882 7.16668 2.49984 7.16668H3.33317V16.3333C3.33317 16.9964 3.59656 17.6323 4.0654 18.1011C4.53424 18.57 5.17013 18.8333 5.83317 18.8333H14.1665C14.8295 18.8333 15.4654 18.57 15.9343 18.1011C16.4031 17.6323 16.6665 16.9964 16.6665 16.3333V7.16668H17.4998C17.7209 7.16668 17.9328 7.07888 18.0891 6.9226C18.2454 6.76632 18.3332 6.55436 18.3332 6.33334C18.3332 6.11233 18.2454 5.90037 18.0891 5.74409C17.9328 5.58781 17.7209 5.50001 17.4998 5.50001ZM8.33317 4.10834C8.33317 3.97501 8.50817 3.83334 8.74984 3.83334H11.2498C11.4915 3.83334 11.6665 3.97501 11.6665 4.10834V5.50001H8.33317V4.10834ZM14.9998 16.3333C14.9998 16.5544 14.912 16.7663 14.7558 16.9226C14.5995 17.0789 14.3875 17.1667 14.1665 17.1667H5.83317C5.61216 17.1667 5.4002 17.0789 5.24392 16.9226C5.08764 16.7663 4.99984 16.5544 4.99984 16.3333V7.16668H14.9998V16.3333Z" fill="#292929"/>
<path d="M7.49984 14.6667C7.72085 14.6667 7.93281 14.579 8.08909 14.4227C8.24537 14.2664 8.33317 14.0544 8.33317 13.8334V10.5001C8.33317 10.2791 8.24537 10.0671 8.08909 9.91083C7.93281 9.75455 7.72085 9.66675 7.49984 9.66675C7.27882 9.66675 7.06686 9.75455 6.91058 9.91083C6.7543 10.0671 6.6665 10.2791 6.6665 10.5001V13.8334C6.6665 14.0544 6.7543 14.2664 6.91058 14.4227C7.06686 14.579 7.27882 14.6667 7.49984 14.6667Z" fill="#292929"/>
<path d="M12.4998 14.6667C12.7209 14.6667 12.9328 14.579 13.0891 14.4227C13.2454 14.2664 13.3332 14.0544 13.3332 13.8334V10.5001C13.3332 10.2791 13.2454 10.0671 13.0891 9.91083C12.9328 9.75455 12.7209 9.66675 12.4998 9.66675C12.2788 9.66675 12.0669 9.75455 11.9106 9.91083C11.7543 10.0671 11.6665 10.2791 11.6665 10.5001V13.8334C11.6665 14.0544 11.7543 14.2664 11.9106 14.4227C12.0669 14.579 12.2788 14.6667 12.4998 14.6667Z" fill="#292929"/>
</svg>
