<svg width="14" height="14" viewBox="0 0 14 14" fill="none" xmlns="http://www.w3.org/2000/svg">
<path d="M11.905 4.74971L4.65998 0.594714C4.26794 0.368334 3.82297 0.249743 3.37027 0.250986C2.91757 0.25223 2.47326 0.373263 2.08247 0.601794C1.69169 0.830324 1.36834 1.15821 1.14529 1.55215C0.92223 1.94608 0.807406 2.39204 0.812478 2.84471V11.1847C0.812478 11.865 1.08272 12.5174 1.56375 12.9984C2.04478 13.4795 2.6972 13.7497 3.37748 13.7497C3.82781 13.749 4.27004 13.63 4.65998 13.4047L11.905 9.24971C12.2943 9.02441 12.6175 8.70069 12.8422 8.31104C13.0669 7.92139 13.1851 7.47951 13.1851 7.02971C13.1851 6.57992 13.0669 6.13804 12.8422 5.74839C12.6175 5.35874 12.2943 5.03502 11.905 4.80971V4.74971ZM11.155 7.89221L3.90998 12.1072C3.74759 12.1992 3.56413 12.2476 3.37748 12.2476C3.19083 12.2476 3.00736 12.1992 2.84498 12.1072C2.68305 12.0137 2.54859 11.8793 2.45512 11.7173C2.36164 11.5554 2.31245 11.3717 2.31248 11.1847V2.81471C2.31245 2.62774 2.36164 2.44405 2.45512 2.28211C2.54859 2.12018 2.68305 1.9857 2.84498 1.89221C3.00803 1.80158 3.19095 1.75263 3.37748 1.74971C3.56388 1.75354 3.74658 1.80243 3.90998 1.89221L11.155 6.07722C11.317 6.17066 11.4515 6.30512 11.545 6.46706C11.6386 6.62899 11.6878 6.81271 11.6878 6.99971C11.6878 7.18672 11.6386 7.37044 11.545 7.53237C11.4515 7.69431 11.317 7.82877 11.155 7.92221V7.89221Z" fill="#0356A8"/>
</svg>
